<svg xmlns="http://www.w3.org/2000/svg" width="435.775" height="303.866" viewBox="0 0 435.775 303.866"><defs><style>.a{fill:#add582;}.b{fill:none;}.c{fill:#7db343;}.d{fill:#d69573;}.e{fill:#ffbc90;}.f{fill:#eba67a;}.g{fill:#e09a73;}.ac,.h,.n{fill:#fff;}.aa,.ae,.i{fill:#222;}.j{fill:#e8e5da;}.k{fill:#555;}.l{fill:#6c9931;}.m{fill:#f23b3b;}.n{font-size:5px;}.ac,.n{font-family:Inter-Medium, Inter;font-weight:500;}.o{fill:#2993e2;}.p{fill:#29353a;}.q{fill:#ffeb88;}.r{fill:#ffedd9;}.s{fill:#d6d6d6;}.t{fill:#eb1538;}.ab,.u{fill:#111;}.u{opacity:0.21;}.v{fill:#e2be76;}.w{fill:#f9b408;}.x{fill:#ffc115;}.y{fill:#dda519;}.z{fill:#191919;opacity:0.3;}.aa{opacity:0.6;}.ab,.ad,.ae{opacity:0.2;}.ac{font-size:6px;}.ad{fill:#35261d;}.af{fill:#818181;}.ag{fill:#fbc63c;}.ah{fill:#3a596d;}</style></defs><g transform="translate(-127.602 -1454.817)"><g transform="translate(161.873 1330.318)"><g transform="translate(93.297 124.499)"><g transform="translate(71.498)"><g transform="translate(1.067 1.067)"><rect class="a" width="36.532" height="17.326"/></g><g transform="translate(2.134 2.134)"><path class="b" d="M849.594,138.534a2.872,2.872,0,0,1-2.774-3.606H819.443a2.871,2.871,0,0,1-3.51,3.51v8.171a2.872,2.872,0,0,1,3.51,3.51H846.82a2.871,2.871,0,0,1,3.51-3.51v-8.171A2.872,2.872,0,0,1,849.594,138.534Zm-16.463,9.687a5.7,5.7,0,1,1,5.7-5.7A5.7,5.7,0,0,1,833.131,148.221Z" transform="translate(-815.932 -134.928)"/></g><path class="c" d="M844.168,127.369h0V124.5H805.5v2.869h0v13.719h0v2.869h38.665V127.369Zm-2.87,10.85a2.872,2.872,0,0,0-2.774,3.606H811.147a2.871,2.871,0,0,0-3.51-3.51v-8.171a2.872,2.872,0,0,0,3.51-3.51h27.377a2.871,2.871,0,0,0,3.51,3.51v8.171A2.872,2.872,0,0,0,841.3,138.219Z" transform="translate(-805.503 -124.499)"/><g transform="translate(12.741 3.138)"><circle class="c" cx="5.697" cy="5.697" r="5.697" transform="translate(0 1.96) rotate(-9.907)"/></g><path class="a" d="M-7.929-15.289h-.83a1.629,1.629,0,0,0-.3-.716l.921.006.208-.728h-3.826l-.213.777h1.111c.64,0,1.011.248,1.146.661h-2.052l-.2.722h2.28c-.12.462-.526.716-1.169.716h-1.038l.006.57,2.093,2.54h1.067v-.05l-1.911-2.341c1.2-.073,1.765-.646,1.885-1.435h.62Z" transform="translate(29.298 23.91)"/></g><g transform="translate(0.287 24.309)"><g transform="translate(1.493 1.493)"><rect class="a" width="36.532" height="17.326" transform="translate(0 29.268) rotate(-53.241)"/></g><g transform="translate(5.087 5.087)"><path class="b" d="M503.227,268.833a2.872,2.872,0,0,1-4.549.065l-16.384,21.934a2.872,2.872,0,0,1,.712,4.913l6.546,4.89a2.871,2.871,0,0,1,4.913-.712l16.384-21.934a2.872,2.872,0,0,1-.712-4.913l-6.547-4.89A2.873,2.873,0,0,1,503.227,268.833Zm-2.091,18.987a5.7,5.7,0,1,1-1.155-7.973A5.7,5.7,0,0,1,501.136,287.819Z" transform="translate(-482.294 -268.186)"/></g><path class="c" d="M482.868,245.038h0l-2.3-1.717-1.717,2.3h0L459.146,272h0l-1.717,2.3,2.3,1.717h0l10.991,8.21h0l2.3,1.717,23.139-30.977-13.291-9.928Zm6.975,8.792a2.872,2.872,0,0,0,1.229,4.381l-16.384,21.934a2.872,2.872,0,0,0-4.913.712l-6.546-4.89a2.871,2.871,0,0,0-.712-4.913L478.9,249.12a2.871,2.871,0,0,0,4.913-.712l6.547,4.89A2.866,2.866,0,0,0,489.843,253.831Z" transform="translate(-457.429 -243.321)"/><g transform="translate(11.317 13.264)"><circle class="c" cx="5.697" cy="5.697" r="5.697" transform="matrix(0.672, -0.74, 0.74, 0.672, 0, 8.433)"/><path class="a" d="M-7.929-15.289h-.83a1.629,1.629,0,0,0-.3-.716l.921.006.208-.728h-3.826l-.213.777h1.111c.64,0,1.011.248,1.146.661h-2.052l-.2.722h2.28c-.12.462-.526.716-1.169.716h-1.038l.006.57,2.093,2.54h1.067v-.05l-1.911-2.341c1.2-.073,1.765-.646,1.885-1.435h.62Z" transform="matrix(0.602, -0.799, 0.799, 0.602, 25.2, 7.925)"/></g></g><g transform="translate(140.981 23.974)"><g transform="translate(1.493 1.493)"><rect class="a" width="17.326" height="36.532" transform="matrix(0.801, -0.598, 0.598, 0.801, 0, 10.369)"/></g><g transform="translate(5.087 5.087)"><path class="b" d="M1191.293,299l6.546-4.89a2.871,2.871,0,0,1,.712-4.913l-16.384-21.934a2.872,2.872,0,0,1-4.913-.712l-6.547,4.89a2.872,2.872,0,0,1-.712,4.913l16.384,21.934a2.872,2.872,0,0,1,4.913.712Zm-3.61-11.66a5.7,5.7,0,1,1,1.155-7.974A5.7,5.7,0,0,1,1187.683,287.336Z" transform="translate(-1169.996 -266.548)"/></g><path class="c" d="M1170.57,282.588l13.291-9.928-23.14-30.977-2.3,1.717h0l-10.991,8.21h0l-2.3,1.717,1.717,2.3h0l19.7,26.378h0l1.717,2.3,2.3-1.717Zm7.492-8.26-6.546,4.89a2.872,2.872,0,0,0-4.913-.712l-16.384-21.934a2.872,2.872,0,0,0,.712-4.913l6.547-4.89a2.872,2.872,0,0,0,4.913.712l16.384,21.934a2.871,2.871,0,0,0-.712,4.913Z" transform="translate(-1145.131 -241.683)"/><g transform="translate(12.91 14.857)"><circle class="c" cx="5.697" cy="5.697" r="5.697" transform="translate(0 11.276) rotate(-81.759)"/></g><path class="a" d="M-7.929-15.289h-.83a1.629,1.629,0,0,0-.3-.716l.921.006.208-.728h-3.826l-.213.777h1.111c.64,0,1.011.248,1.146.661h-2.052l-.2.722h2.28c-.12.462-.526.716-1.169.716h-1.038l.006.57,2.093,2.54h1.067v-.05l-1.911-2.341c1.2-.073,1.765-.646,1.885-1.435h.62Z" transform="translate(11.948 36.682) rotate(60)"/></g></g><g transform="translate(0 209.899)"><g transform="translate(0 0)"><path class="d" d="M631.978,886.828l-10.107,6.918-.653-5.289,2.217-3.227Z" transform="translate(-494.126 -814.995)"/><path class="d" d="M626.655,977.809l-7.643,8.053-1.584-4.564,1.351-3.281Z" transform="translate(-491.111 -888.634)"/><path class="d" d="M619.747,1059.326l-6.3,5.213-1.735-6.445,2.6-2.758Z" transform="translate(-486.565 -950.3)"/><path class="d" d="M242.539,1141.064s-18.116,12.447-25.245,14.144c-3.71.883-16.6,65.938-22.859,79.747h4.842c3.042-11.029,14.984-68.972,20.365-74.514,0,0,22.315-9.062,32.289-18.473Z" transform="translate(-154.656 -1018.49)"/><path class="e" d="M598.7,719.261s10.123-3.47,11.631,1.735-.127,7.921-10.394,11.919c-8.43,3.283-9.241,1.283-9.241,1.283l.377-12.372Z" transform="translate(-469.847 -682.08)"/><path class="f" d="M0,898.5v64.8L37.248,854.613l-2.195-44.8s3.644-14.939-.2-8.794c-.435.7-4.925,13.583-5.454,14.526-5.205,9.279-4.13,34.32-4.13,34.32s-.158,2.919-3.565,8.267C20.786,859.572,10.155,879.45,0,898.5Z" transform="translate(0 -746.836)"/><path class="e" d="M104.417,777.8l-35.3-1.094V731.927s-.318-.852-5.464,2.687a48.857,48.857,0,0,1-10.83,5.375c1.1-6.612-2.32-16.747-2.32-16.747,7.02-2.206,9.279-9.335,9.279-9.335s.17-9.3.17-11.617-2.716-2.98-4.3-2.753-4.413,6-6.337,7.864-6.268,2.557-9.832,4.764-7.864,20.876-9.9,27.325-.624,34.061-.624,34.061c-2.619,3.23-16.728,29.656-28.954,52.9v57.274H41.336c5.971-20.98,20.168-77.083,20.168-77.083,18.256-5.205,43.441-25.522,43.441-25.522Z" transform="translate(0 -667.259)"/><path class="g" d="M257.989,1097.545s5.253-7.129,6.077-11.315,1.048-5.544,1.048-5.544l3.592,7.921,3.428,5.035-3.258,2.32Z" transform="translate(-205.208 -970.464)"/><path class="f" d="M253.623,1042.193s.412,10.142-4.3,18.826a13.453,13.453,0,0,1-5.309,5,7.208,7.208,0,0,1,1.336,2.991l.11,1.372S256.1,1062.2,253.623,1042.193Z" transform="translate(-194.091 -939.846)"/><path class="f" d="M257.989,884.194s7.832,12.52,6.9,22.122c0,0,2.552-22.4,1.043-25.573Z" transform="translate(-205.208 -811.427)"/><path class="h" d="M635.864,831.657" transform="translate(-505.775 -772.383)"/><path class="d" d="M205.539,1179.76c-3.48-1.127-18.585-5.223-27.872-10.8,0,0,20.465,13.767,25.528,14.97l.119.027Z" transform="translate(-141.319 -1040.68)"/><path class="f" d="M252.119,1156.638c9.471-5.106,34.039-2.845,34.039-2.845h0s-23.423-5.965-31.909-.886Z" transform="translate(-200.539 -1026.28)"/><g transform="translate(59.701)"><path class="i" d="M360.663,660.874a6.886,6.886,0,0,1-6.939,6.789H298.755a6.886,6.886,0,0,1-6.939-6.789V548.719a6.886,6.886,0,0,1,6.939-6.789h54.968a6.886,6.886,0,0,1,6.939,6.789Z" transform="translate(-291.816 -541.93)"/><rect class="j" width="62.73" height="100.613" transform="translate(3.058 12.56)"/><rect class="k" width="18.733" height="2.614" rx="1.307" transform="translate(26.188 5.279)"/><g transform="translate(7.225 22.993)"><g transform="translate(1.603)"><g transform="translate(0 5.146)"><g transform="translate(32.491)"><rect class="a" width="16.283" height="30.529" transform="translate(1.003 1.003)"/><path class="b" d="M505.948,718.8h9.537a2.694,2.694,0,0,1,2.37-.5V692.573a2.7,2.7,0,0,1-3.3-3.3h-7.679a2.7,2.7,0,0,1-3.3,3.3V718.3a2.694,2.694,0,0,1,2.37.5Zm4.768-18.717a5.354,5.354,0,1,1-5.354,5.354A5.354,5.354,0,0,1,510.717,700.084Z" transform="translate(-501.573 -687.269)"/><path class="l" d="M498.152,711.005a2.694,2.694,0,0,0-2.37-.5V684.777a2.7,2.7,0,0,0,3.3-3.3h7.679a2.7,2.7,0,0,0,3.3,3.3v25.729a2.694,2.694,0,0,0-2.37.5h4.375V679.473H493.777v31.532Z" transform="translate(-493.777 -679.473)"/><circle class="c" cx="5.354" cy="5.354" r="5.354" transform="matrix(0.973, -0.232, 0.232, 0.973, 2.693, 14.206)"/><path class="a" d="M-7.929-15.289h-.83a1.629,1.629,0,0,0-.3-.716l.921.006.208-.728h-3.826l-.213.777h1.111c.64,0,1.011.248,1.146.661h-2.052l-.2.722h2.28c-.12.462-.526.716-1.169.716h-1.038l.006.57,2.093,2.54h1.067v-.05l-1.911-2.341c1.2-.073,1.765-.646,1.885-1.435h.62Z" transform="translate(-4.607 28.582) rotate(90)"/></g><rect class="a" width="16.283" height="30.529" transform="translate(1.003 1.003)"/><path class="b" d="M347.136,718.8h9.537a2.694,2.694,0,0,1,2.37-.5V692.573a2.7,2.7,0,0,1-3.3-3.3h-7.679a2.7,2.7,0,0,1-3.3,3.3V718.3a2.694,2.694,0,0,1,2.37.5Zm4.768-18.717a5.354,5.354,0,1,1-5.354,5.354A5.354,5.354,0,0,1,351.9,700.084Z" transform="translate(-342.761 -687.269)"/><path class="l" d="M334.965,711.005h4.375a2.694,2.694,0,0,0-2.37-.5V684.777a2.7,2.7,0,0,0,3.3-3.3h7.679a2.7,2.7,0,0,0,3.3,3.3v25.729a2.694,2.694,0,0,0-2.37.5h4.375V679.473H334.965v2.7h0Z" transform="translate(-334.965 -679.473)"/><path class="c" d="M5.354,0A5.354,5.354,0,1,1,0,5.354,5.354,5.354,0,0,1,5.354,0Z" transform="translate(2.598 13.421) rotate(-9.561)"/><path class="a" d="M-7.929-15.289h-.83a1.629,1.629,0,0,0-.3-.716l.921.006.208-.728h-3.826l-.213.777h1.111c.64,0,1.011.248,1.146.661h-2.052l-.2.722h2.28c-.12.462-.526.716-1.169.716h-1.038l.006.57,2.093,2.54h1.067v-.05l-1.911-2.341c1.2-.073,1.765-.646,1.885-1.435h.62Z" transform="translate(-5.117 27.582) rotate(90)"/></g><g transform="translate(16.245)"><rect class="a" width="16.283" height="34.333" transform="translate(1.003 1.003)"/><path class="b" d="M427.561,664.813a2.7,2.7,0,0,1-3.389,2.607v25.729a2.7,2.7,0,0,1,3.3,3.3h7.679a2.7,2.7,0,0,1,3.3-3.3V667.42a2.7,2.7,0,0,1-3.3-3.3h-7.679A2.7,2.7,0,0,1,427.561,664.813Zm9.1,15.472a5.354,5.354,0,1,1-5.354-5.354A5.354,5.354,0,0,1,436.665,680.285Z" transform="translate(-422.167 -662.116)"/><path class="c" d="M417.068,654.319h-2.7v2.7h0V687.96h0v2.7h18.288V654.319H417.068Zm10.2,2.7a2.7,2.7,0,0,0,3.389,2.607v25.729a2.7,2.7,0,0,0-3.3,3.3h-7.679a2.7,2.7,0,0,0-3.3-3.3V659.623a2.7,2.7,0,0,0,3.3-3.3h7.679A2.7,2.7,0,0,0,427.265,657.016Z" transform="translate(-414.371 -654.319)"/><circle class="c" cx="5.354" cy="5.354" r="5.354" transform="translate(1.572 18.169) rotate(-45)"/><path class="a" d="M-7.929-15.289h-.83a1.629,1.629,0,0,0-.3-.716l.921.006.208-.728h-3.826l-.213.777h1.111c.64,0,1.011.248,1.146.661h-2.052l-.2.722h2.28c-.12.462-.526.716-1.169.716h-1.038l.006.57,2.093,2.54h1.067v-.05l-1.911-2.341c1.2-.073,1.765-.646,1.885-1.435h.62Z" transform="translate(-4.362 27.728) rotate(90)"/></g></g><g transform="translate(4.478 72.58)"><g transform="translate(0 6)"><rect class="m" width="45.188" height="8.611" rx="2" transform="translate(-0.277 -6.791)"/><text class="n" transform="translate(26.723 -0.791)"><tspan x="-9.363" y="0">PAY</tspan></text></g></g><g transform="translate(0 29.992)"><rect class="o" width="53.998" height="30.768" rx="5"/><rect class="p" width="53.998" height="6.675" transform="translate(0 4.442)"/><g transform="translate(1.904 14.294)"><rect class="h" width="50.191" height="2.432"/><rect class="q" width="9.649" height="6.709" rx="3.354" transform="translate(0 5.662)"/><rect class="p" width="4.289" height="0.816" transform="translate(11.217 5.662)"/><rect class="p" width="21.084" height="0.816" transform="translate(16.996 5.662)"/><rect class="p" width="10.69" height="0.816" transform="translate(39.5 5.662)"/><rect class="p" width="10.749" height="0.816" transform="translate(11.217 8.608)"/><rect class="p" width="26.947" height="0.816" transform="translate(23.243 8.608)"/><rect class="p" width="17.18" height="0.816" transform="translate(17.564 11.554)"/><rect class="p" width="13.956" height="0.816" transform="translate(36.235 11.554)"/></g></g></g></g><path class="e" d="M606.611,933.87s3.249-1.683,3.395-4.526c.03-.576-.712-4.781-2.112-6.6-1.1-1.433-2.772-2.115-6.312-2.095,0,0-6.7,2.095-6.851,7.262s2.9,6.11,4.111,6.752A7.2,7.2,0,0,0,606.611,933.87Z" transform="translate(-473.053 -843.168)"/><path class="e" d="M622.523,1019.722c-3.6,5.177-6.506.4-6.506.4-2.489-2.885-3.847-12.447.453-12.786s6.62,4.3,6.62,4.3a6.232,6.232,0,0,1,.547,2.169C623.792,1015.624,623.545,1018.255,622.523,1019.722Z" transform="translate(-488.135 -912.103)"/><path class="r" d="M247.969,702.179s2.033,3.966-3.544,7.026a13.487,13.487,0,0,1-1.849.487A81.525,81.525,0,0,1,247.969,702.179Z" transform="translate(-192.948 -669.394)"/><path class="f" d="M231.877,805.382a19.042,19.042,0,0,1-8.617-.227l4.785,2.169A11.212,11.212,0,0,0,231.877,805.382Z" transform="translate(-177.584 -751.303)"/><path class="r" d="M644.393,1020.306s3.366,4.149,1.127,9.052C645.52,1029.358,650.909,1024.832,644.393,1020.306Z" transform="translate(-512.559 -922.437)"/><path class="r" d="M624.357,933.856s4.15,4.334,1.788,8.673c0,0,5.3-5.259-1.363-8.768l-.75-.306Z" transform="translate(-496.364 -853.354)"/><path class="e" d="M615.833,838.825s3.893-1.064,4.709-4.1c.165-.615.338-5.322-.751-7.608-.858-1.8-1.8-3.16-6.324-3.72a8.153,8.153,0,0,0-2.308.193c-2.379.6-5.841,2.3-6.762,6.056-1.358,5.539,1.719,7.263,2.872,8.233A7.94,7.94,0,0,0,615.833,838.825Z" transform="translate(-480.475 -765.804)"/><path class="r" d="M640.318,836.586a10.694,10.694,0,0,1,.246,9.631s6.789-4.38.414-9.707l-1.15-.66Z" transform="translate(-508.928 -775.719)"/><g transform="translate(0 121.202)"><path class="h" d="M12.926,1151.318l8.839-16.962,51.855,30.283-3.636,9.105Z" transform="translate(-10.282 -1134.356)"/><path class="s" d="M255.869,1260.065l-9.827-5.739-3.991,10.842,10.181,4Z" transform="translate(-192.531 -1229.782)"/><path class="t" d="M2.817,1150.858l-37.088,91.888H45.3l20.807-55.96Z" transform="translate(0 -1147.482)"/><path class="u" d="M195.967,1304.963l-9.746-5.532-22.961,61.492h11.9Z" transform="translate(-129.859 -1265.659)"/></g></g><g transform="translate(227.288 0)"><path class="d" d="M1126.189,886.828l10.107,6.918.653-5.289-2.217-3.227Z" transform="translate(-1123.074 -814.995)"/><path class="d" d="M1137.47,977.809l7.643,8.053,1.584-4.564-1.351-3.281Z" transform="translate(-1132.048 -888.634)"/><path class="d" d="M1149.014,1059.326l6.3,5.213,1.735-6.445-2.6-2.758Z" transform="translate(-1141.23 -950.3)"/><path class="d" d="M1333.924,1141.064s18.116,12.447,25.245,14.144c3.71.883,16.6,65.938,22.859,79.747h-4.842c-3.042-11.029-14.984-68.972-20.365-74.514,0,0-22.314-9.062-32.289-18.473Z" transform="translate(-1280.84 -1018.49)"/><path class="e" d="M1123.082,719.261s-10.123-3.47-11.631,1.735.128,7.921,10.394,11.919c8.43,3.283,9.241,1.283,9.241,1.283l-.377-12.372Z" transform="translate(-1110.966 -682.08)"/><path class="f" d="M1655.181,898.5v64.8l-37.248-108.689,2.195-44.8s-3.645-14.939.2-8.794c.435.7,4.925,13.583,5.454,14.526,5.205,9.279,4.13,34.32,4.13,34.32s.158,2.919,3.565,8.267C1634.4,859.572,1645.027,879.45,1655.181,898.5Z" transform="translate(-1514.215 -746.836)"/><path class="e" d="M1287.565,777.8l35.3-1.094V731.927s.318-.852,5.464,2.687a48.857,48.857,0,0,0,10.83,5.375c-1.1-6.612,2.32-16.747,2.32-16.747-7.02-2.206-9.279-9.335-9.279-9.335s-.17-9.3-.17-11.617,2.716-2.98,4.3-2.753,4.413,6,6.337,7.864,6.268,2.557,9.832,4.764,7.864,20.876,9.9,27.325.624,34.061.624,34.061c2.619,3.23,16.728,29.656,28.954,52.9v57.274h-41.336c-5.971-20.98-20.168-77.083-20.168-77.083-18.256-5.205-43.441-25.522-43.441-25.522Z" transform="translate(-1251.016 -667.259)"/><path class="g" d="M1487.018,1097.545s-5.253-7.129-6.077-11.315-1.048-5.544-1.048-5.544l-3.592,7.921-3.428,5.035,3.258,2.32Z" transform="translate(-1398.833 -970.464)"/><path class="f" d="M1507.557,1042.193s-.412,10.142,4.3,18.826a13.454,13.454,0,0,0,5.309,5,7.21,7.21,0,0,0-1.335,2.991l-.11,1.372S1505.082,1062.2,1507.557,1042.193Z" transform="translate(-1426.124 -939.846)"/><path class="f" d="M1509.269,884.194s-7.832,12.52-6.9,22.122c0,0-2.552-22.4-1.043-25.573Z" transform="translate(-1421.083 -811.427)"/><path class="h" d="M1164.136,831.657" transform="translate(-1153.258 -772.383)"/><path class="d" d="M1486.095,1179.76c3.48-1.127,18.584-5.223,27.872-10.8,0,0-20.465,13.767-25.528,14.97l-.119.027Z" transform="translate(-1409.349 -1040.68)"/><path class="f" d="M1415.539,1156.638c-9.471-5.106-34.039-2.845-34.039-2.845h0s23.423-5.965,31.909-.886Z" transform="translate(-1326.153 -1026.28)"/><g transform="translate(12.418)"><path class="i" d="M1171.667,660.874a6.886,6.886,0,0,0,6.939,6.789h54.968a6.885,6.885,0,0,0,6.939-6.789V548.719a6.886,6.886,0,0,0-6.939-6.789h-54.968a6.886,6.886,0,0,0-6.939,6.789Z" transform="translate(-1171.667 -541.93)"/><rect class="j" width="62.73" height="100.613" transform="translate(3.058 12.56)"/><rect class="k" width="18.733" height="2.614" rx="1.307" transform="translate(24.744 5.279)"/><g transform="translate(14.4 12.731)"><g transform="translate(0 29.606)"><g transform="translate(11.804 -6)"><g transform="translate(0.867 0.867)"><rect class="a" width="14.078" height="29.684"/></g><g transform="translate(1.734 1.734)"><path class="b" d="M1317.64,784.7a2.334,2.334,0,0,1,2.93-2.254V760.2a2.333,2.333,0,0,1-2.853-2.852h-6.639a2.333,2.333,0,0,1-2.852,2.852v22.246a2.334,2.334,0,0,1,2.852,2.853h6.639A2.334,2.334,0,0,1,1317.64,784.7Zm-7.871-13.377a4.629,4.629,0,1,1,4.629,4.629A4.629,4.629,0,0,1,1309.769,771.32Z" transform="translate(-1308.226 -757.345)"/></g><path class="c" d="M1313.231,780.289h2.332v-2.332h0V751.2h0v-2.332h-15.812v31.418h13.48Zm-8.816-2.332a2.333,2.333,0,0,0-2.93-2.254V753.457a2.333,2.333,0,0,0,2.852-2.852h6.639a2.333,2.333,0,0,0,2.853,2.852V775.7a2.334,2.334,0,0,0-2.853,2.853h-6.639A2.335,2.335,0,0,0,1304.415,777.957Z" transform="translate(-1299.751 -748.871)"/><g transform="translate(3.277 11.08)"><circle class="c" cx="4.629" cy="4.629" r="4.629"/></g><path class="a" d="M-7.929-15.289h-.83a1.629,1.629,0,0,0-.3-.716l.921.006.208-.728h-3.826l-.213.777h1.111c.64,0,1.011.248,1.146.661h-2.052l-.2.722h2.28c-.12.462-.526.716-1.169.716h-1.038l.006.57,2.093,2.54h1.067v-.05l-1.911-2.341c1.2-.073,1.765-.646,1.885-1.435h.62Z" transform="matrix(0.017, 1, -1, 0.017, -5.323, 25.623)"/></g><g transform="translate(0 17.25)"><rect class="v" width="35.579" height="22.986" transform="translate(1.467 11.893)"/><path class="h" d="M1281.3,873.421l-19.622-10.9-19.622,10.9v2.534H1281.3Z" transform="translate(-1242.054 -862.517)"/><rect class="h" width="39.245" height="2.772" transform="translate(0 34.034)"/><path class="h" d="M1276.761,932.361h-27.535v17.324h3.435V937.216a2.289,2.289,0,0,1,4.577,0v12.469h3.464V937.216a2.289,2.289,0,0,1,4.577,0v12.469h3.471V937.216a2.289,2.289,0,0,1,4.577,0v12.469h3.467V937.216a2.289,2.289,0,0,1,4.577,0v12.469h3.434V932.361Z" transform="translate(-1247.759 -918.072)"/><rect class="h" width="3.432" height="0.805" transform="translate(1.467 32.408)"/><rect class="h" width="3.466" height="0.805" transform="translate(9.481 32.403)"/><rect class="h" width="3.466" height="0.805" transform="translate(17.524 32.403)"/><rect class="h" width="3.466" height="0.805" transform="translate(25.575 32.398)"/><rect class="h" width="3.439" height="0.805" transform="translate(33.607 32.393)"/><g transform="translate(15.209 3.695)"><circle class="w" cx="3.121" cy="3.121" r="3.121" transform="translate(0 4.414) rotate(-45)"/></g></g></g><path class="x" d="M1298.558,607.524h-23.8l-1.786-3.364h27.37Z" transform="translate(-1266.648 -604.16)"/><path class="y" d="M1299.719,605.336l.625-1.176h-27.37l.625,1.176Z" transform="translate(-1266.648 -604.16)"/><path class="y" d="M1303.716,621.318H1283.49l-1.786-.714h23.8Z" transform="translate(-1273.592 -617.24)"/><path class="y" d="M1303.537,621.743H1283.49L1281.7,620.6h23.8Z" transform="translate(-1273.592 -617.24)"/><path class="z" d="M1309.964,622.557h-20.747l.606.314h19.511Z" transform="translate(-1279.568 -618.793)"/><g transform="translate(12.105 3.764)"><g transform="translate(0 0.211)"><g transform="translate(0.867 0)"><rect class="a" width="14.078" height="15.003"/></g><g transform="translate(1.734)"><path class="b" d="M1319.038,622.556a3.48,3.48,0,0,1,1.459,2.748c0,2.083-2.072,3.772-4.629,3.772s-4.629-1.689-4.629-3.772a3.48,3.48,0,0,1,1.459-2.748h-3v11.812a2.848,2.848,0,0,1,.6-.063,2.15,2.15,0,0,1,2.332,1.9,1.573,1.573,0,0,1-.078.487h6.64a1.573,1.573,0,0,1-.078-.487,2.15,2.15,0,0,1,2.332-1.9,2.848,2.848,0,0,1,.6.063V622.556Z" transform="translate(-1309.696 -622.556)"/></g><path class="c" d="M1315.3,622.556v12.055a2.793,2.793,0,0,0-.6-.065,2.163,2.163,0,0,0-2.332,1.939,1.636,1.636,0,0,0,.078.5h-6.64a1.636,1.636,0,0,0,.078-.5,2.163,2.163,0,0,0-2.332-1.939,2.792,2.792,0,0,0-.6.065V622.556h-1.734v15.87h15.812v-1.939h0v-13.93Z" transform="translate(-1301.222 -622.556)"/><g transform="translate(3.277)"><path class="c" d="M1325.038,622.556h-6.34a4.629,4.629,0,1,0,6.34,0Z" transform="translate(-1317.239 -622.556)"/></g><path class="a" d="M4.036,1.438h-.83a1.629,1.629,0,0,0-.3-.716l.921.006L4.039,0H.213L0,.777H1.111c.64,0,1.011.248,1.146.661H.2L0,2.16H2.28c-.12.462-.526.716-1.169.716H.073l.006.57,2.093,2.54H3.238v-.05L1.327,3.595c1.2-.073,1.765-.646,1.885-1.435h.62Z" transform="matrix(0.035, 0.999, -0.999, 0.035, 10.856, 1.157)"/></g></g><rect class="aa" width="15.812" height="0.833" transform="translate(12.105 3.764)"/></g></g><path class="e" d="M1133.973,933.87s-3.249-1.683-3.395-4.526c-.03-.576.712-4.781,2.112-6.6,1.1-1.433,2.772-2.115,6.312-2.095,0,0,6.7,2.095,6.851,7.262s-2.9,6.11-4.111,6.752A7.2,7.2,0,0,1,1133.973,933.87Z" transform="translate(-1126.566 -843.168)"/><path class="e" d="M1138.626,1019.722c3.6,5.177,6.506.4,6.506.4,2.489-2.885,3.847-12.447-.453-12.786s-6.62,4.3-6.62,4.3a6.229,6.229,0,0,0-.547,2.169C1137.357,1015.624,1137.6,1018.255,1138.626,1019.722Z" transform="translate(-1132.048 -912.103)"/><path class="r" d="M1529.656,702.179s-2.033,3.966,3.544,7.026a13.489,13.489,0,0,0,1.849.487A81.519,81.519,0,0,0,1529.656,702.179Z" transform="translate(-1443.711 -669.394)"/><path class="f" d="M1534.619,805.382a19.042,19.042,0,0,0,8.617-.227l-4.785,2.169A11.212,11.212,0,0,1,1534.619,805.382Z" transform="translate(-1447.946 -751.303)"/><path class="r" d="M1143.087,1020.306s-3.366,4.149-1.127,9.052C1141.96,1029.358,1136.571,1024.832,1143.087,1020.306Z" transform="translate(-1133.954 -922.437)"/><path class="r" d="M1159.66,933.856s-4.15,4.334-1.788,8.673c0,0-5.3-5.259,1.363-8.768l.75-.306Z" transform="translate(-1146.687 -853.354)"/><path class="e" d="M1119.6,838.825s-3.893-1.064-4.709-4.1c-.165-.615-.339-5.322.751-7.608.858-1.8,1.8-3.16,6.323-3.72a8.153,8.153,0,0,1,2.308.193c2.379.6,5.841,2.3,6.762,6.056,1.358,5.539-1.719,7.263-2.872,8.233A7.94,7.94,0,0,1,1119.6,838.825Z" transform="translate(-1113.992 -765.804)"/><path class="r" d="M1144.6,836.586a10.694,10.694,0,0,0-.246,9.631s-6.789-4.38-.414-9.707l1.15-.66Z" transform="translate(-1135.019 -775.719)"/><g transform="translate(74.859 121.202)"><path class="h" d="M1551.1,1151.318l-8.839-16.962-51.855,30.283,3.636,9.105Z" transform="translate(-1487.639 -1134.356)"/><path class="s" d="M1490.409,1260.065l9.827-5.739,3.991,10.842-10.181,4Z" transform="translate(-1487.639 -1229.782)"/><path class="t" d="M1540.161,1150.858l36.067,91.888h-78.551l-20.807-55.96Z" transform="translate(-1476.87 -1147.482)"/><path class="ab" d="M1476.87,1304.963l9.746-5.532,22.962,61.492h-11.9Z" transform="translate(-1476.87 -1265.659)"/></g><g transform="translate(25.116 100.573)"><g transform="translate(-4.097 5.219)"><g transform="translate(-0.277 -6.791)"><rect class="m" width="53.382" height="10.172" rx="2"/><text class="ac" transform="translate(41.097 7.781)"><tspan x="-29.282" y="0">RECEIVED</tspan></text></g></g></g></g><g transform="translate(86.409 101.713)"><path class="ad" d="M435.776,1035.413c-.648-1.685-3.281-7.869-9.276-5.6s-3.713,9.583-3.713,9.583h0c.366,1.846,3.286,10.289,5.309,15.944l16.586-.021C441.787,1048.171,436.784,1037.568,435.776,1035.413Z" transform="translate(-422.361 -1029.318)"/><path class="d" d="M607.238,1500.406a9.743,9.743,0,0,0-1.328-.687Z" transform="translate(-568.358 -1403.482)"/><path class="f" d="M490.537,1305.938c-.595-.3-4.789-2.107-9-3.933-1.682-7.323-10.68-26.518-10.68-26.518l-3.53-8.489-3.8-5.813-1.715-2.332s-4.459-3.786-8.237-2.484c0,0-2.354.849-1.59,2.952,0,0,2.535,5.893,1.626,9.838s-2.439,6.882-1.9,9.5c.415,2.035,10.7,12.178,15.265,16.6h0c2.338,3.321,15.006,13.858,16.176,14.617,5.18,3.364,8.233,3.417,8.233,3.417,1.791,2.525,3.76,8.565,5.035,13.156h12.439C502.424,1316.241,495.232,1308.288,490.537,1305.938Z" transform="translate(-445.614 -1209.7)"/><path class="ae" d="M511.736,1291.486c-3.635-11.659-5.315-20.291-11.8-30.621,1.038,6.881,3.386,17.8,3.386,17.8,4.356,15.757,13.189,26.6,14.158,27.225.662.427,2.389,1.059,3.492,1.62C521.452,1302.986,513.141,1295.753,511.736,1291.486Z" transform="translate(-484.064 -1213.494)"/><path class="e" d="M474.085,1129.924c4.286,1.6,5.656,8.289,8.349,16.556h48.3c-1.421-2.3-2.813-4.657-4.075-7.057-6.514-12.394-10.63-21.26-10.63-21.26,2.439-9.7-3.286-27.644-4.926-31.5-1.581-3.717-5.288-11.535-11.468-14.257s-10.764-.2-10.764-.2c-7.306-4.679-13.145-1.215-13.145-1.215-9.043-6.152-16.9,1.114-16.9,1.114-.453-.936-1.092-2.335-1.856-4.053-2.209-6.078-11.135-28.042-13.045-32.127-.648-1.685-3.281-7.869-9.276-5.6s-3.713,9.583-3.713,9.583h0c.951,4.793,10.807,30.463,12.32,35.274,1.771,5.631,8.908,25.515,8.908,25.515C458.342,1117.645,461.039,1125.065,474.085,1129.924Z" transform="translate(-428.845 -1029.727)"/><path class="r" d="M456.564,1275.037s2.553-5.149.645-7.057-2.5-1.132-2.5-1.132a.724.724,0,0,0-.22.642A27.112,27.112,0,0,1,456.564,1275.037Z" transform="translate(-447.909 -1218.128)"/><path class="r" d="M438.317,1044.476a4.484,4.484,0,0,1,.245-3.453,5.692,5.692,0,0,1,6.006-2.364,4.483,4.483,0,0,1,2.533,2.359l.734,1.864a2.387,2.387,0,0,1-.765,2.648,16.258,16.258,0,0,1-5.653,2.226,2.387,2.387,0,0,1-2.365-1.415Z" transform="translate(-434.868 -1036.632)"/><path class="h" d="M647.763,1501.48l44.76-15.035-5.25-10.305-48.894,18.254,3.893,7.086Z" transform="translate(-594.185 -1384.727)"/><path class="s" d="M647.767,1555.6l6.716-2.256-4.489-9.165-11.615,4.336,3.892,7.084Z" transform="translate(-594.185 -1438.844)"/><path class="t" d="M699.321,1518.585l-11.375-20.94L630.678,1518l.245.588Z" transform="translate(-588.059 -1401.832)"/><path class="ab" d="M641.9,1584.9l-1.949-3.884-9.274,3.3.245.588Z" transform="translate(-588.06 -1468.144)"/></g></g><path class="af" d="M13.856,7.673a.613.613,0,0,0,0,.862l2.85,2.855H5.855a.609.609,0,0,0,0,1.219H16.7l-2.85,2.855a.617.617,0,0,0,0,.863.607.607,0,0,0,.858,0l3.863-3.891h0a.684.684,0,0,0,.127-.192A.582.582,0,0,0,18.745,12a.611.611,0,0,0-.173-.427L14.709,7.688A.6.6,0,0,0,13.856,7.673Z" transform="matrix(0.53, -0.848, 0.848, 0.53, 76.643, 199.947)"/><path class="af" d="M13.856,7.673a.613.613,0,0,0,0,.862l2.85,2.855H5.855a.609.609,0,0,0,0,1.219H16.7l-2.85,2.855a.617.617,0,0,0,0,.863.607.607,0,0,0,.858,0l3.863-3.891h0a.684.684,0,0,0,.127-.192A.582.582,0,0,0,18.745,12a.611.611,0,0,0-.173-.427L14.709,7.688A.6.6,0,0,0,13.856,7.673Z" transform="matrix(0.719, -0.695, 0.695, 0.719, 115.211, 144.833)"/><path class="af" d="M13.856,7.673a.613.613,0,0,0,0,.862l2.85,2.855H5.855a.609.609,0,0,0,0,1.219H16.7l-2.85,2.855a.617.617,0,0,0,0,.863.607.607,0,0,0,.858,0l3.863-3.891h0a.684.684,0,0,0,.127-.192A.582.582,0,0,0,18.745,12a.611.611,0,0,0-.173-.427L14.709,7.688A.6.6,0,0,0,13.856,7.673Z" transform="translate(133.233 129.326) rotate(-25)"/><path class="af" d="M13.856,7.673a.613.613,0,0,0,0,.862l2.85,2.855H5.855a.609.609,0,0,0,0,1.219H16.7l-2.85,2.855a.617.617,0,0,0,0,.863.607.607,0,0,0,.858,0l3.863-3.891h0a.684.684,0,0,0,.127-.192A.582.582,0,0,0,18.745,12a.611.611,0,0,0-.173-.427L14.709,7.688A.6.6,0,0,0,13.856,7.673Z" transform="translate(206.214 120.148) rotate(17)"/><path class="af" d="M13.856,7.673a.613.613,0,0,0,0,.862l2.85,2.855H5.855a.609.609,0,0,0,0,1.219H16.7l-2.85,2.855a.617.617,0,0,0,0,.863.607.607,0,0,0,.858,0l3.863-3.891h0a.684.684,0,0,0,.127-.192A.582.582,0,0,0,18.745,12a.611.611,0,0,0-.173-.427L14.709,7.688A.6.6,0,0,0,13.856,7.673Z" transform="translate(232.293 128.186) rotate(42)"/><path class="af" d="M13.856,7.673a.613.613,0,0,0,0,.862l2.85,2.855H5.855a.609.609,0,0,0,0,1.219H16.7l-2.85,2.855a.617.617,0,0,0,0,.863.607.607,0,0,0,.858,0l3.863-3.891h0a.684.684,0,0,0,.127-.192A.582.582,0,0,0,18.745,12a.611.611,0,0,0-.173-.427L14.709,7.688A.6.6,0,0,0,13.856,7.673Z" transform="translate(276.128 179.421) rotate(55)"/></g><g transform="translate(217.235 1460.049)"><path class="ag" d="M-447.267,1563.568c0-.2,0-.393.012-.589h-1.072v.589c0,7.278-5.17,13.214-11.653,13.523v1.2c6.482.308,11.653,6.244,11.653,13.522,0,.2,0,.393-.012.589h1.084c-.008-.2-.012-.391-.012-.589,0-7.278,5.17-13.214,11.653-13.522v-1.2C-442.1,1576.782-447.267,1570.846-447.267,1563.568Z" transform="translate(459.979 -1562.979)"/></g><g transform="translate(206.414 1493.512)"><path class="ah" d="M-450.491,1563.418c0-.147,0-.293.009-.439h-.8v.439c0,5.432-3.859,9.863-8.7,10.093v.9c4.838.23,8.7,4.66,8.7,10.093,0,.147,0,.294-.009.439h.809c-.006-.146-.009-.292-.009-.439,0-5.432,3.859-9.863,8.7-10.093v-.9C-446.632,1573.281-450.491,1568.851-450.491,1563.418Z" transform="translate(459.979 -1562.979)"/></g></g></svg>